<svg xmlns="http://www.w3.org/2000/svg" width="256" height="256" xmlns:v="https://vecta.io/nano"><path d="M128 23.064l51.723.746c12.48.57 19.257 2.655 23.768 4.407 5.974 2.322 10.239 5.096 14.718 9.575s7.253 8.743 9.575 14.718c1.753 4.511 3.838 11.288 4.408 23.768.616 13.498.746 17.546.746 51.723l-.746 51.723c-.57 12.48-2.655 19.257-4.408 23.768-2.321 5.974-5.096 10.239-9.575 14.718s-8.743 7.253-14.718 9.575c-4.511 1.753-11.288 3.838-23.768 4.408-13.495.616-17.543.746-51.723.746s-38.228-.13-51.723-.746c-12.48-.57-19.257-2.655-23.768-4.408-5.975-2.321-10.239-5.096-14.718-9.575s-7.253-8.743-9.575-14.718c-1.753-4.511-3.838-11.288-4.408-23.768-.616-13.498-.746-17.546-.746-51.723l.746-51.723c.57-12.48 2.655-19.257 4.408-23.768 2.321-5.974 5.096-10.239 9.575-14.718s8.743-7.253 14.718-9.575c4.51-1.752 11.288-3.838 23.767-4.407 13.498-.616 17.546-.746 51.723-.746M128 0C93.237 0 88.878.147 75.226.77c-13.625.622-22.929 2.785-31.071 5.95-8.417 3.271-15.555 7.648-22.671 14.764S9.991 35.738 6.72 44.155C3.555 52.297 1.392 61.602.77 75.226.147 88.878 0 93.237 0 128l.77 52.774c.622 13.625 2.785 22.929 5.95 31.071 3.271 8.417 7.648 15.555 14.764 22.671s14.254 11.493 22.671 14.764c8.142 3.164 17.447 5.328 31.071 5.95 13.653.623 18.011.77 52.774.77s39.122-.147 52.774-.77c13.625-.622 22.929-2.785 31.071-5.95 8.417-3.271 15.555-7.648 22.671-14.764s11.493-14.254 14.764-22.671c3.164-8.142 5.328-17.447 5.95-31.071.623-13.652.77-18.011.77-52.774l-.77-52.774c-.622-13.625-2.785-22.929-5.95-31.071-3.271-8.417-7.648-15.555-14.764-22.671S220.262 9.991 211.845 6.72c-8.142-3.164-17.447-5.328-31.071-5.95C167.122.147 162.763 0 128 0zm0 62.27c-36.301 0-65.73 29.428-65.73 65.73s29.428 65.73 65.73 65.73 65.73-29.428 65.73-65.73S164.301 62.27 128 62.27zm0 108.397c-23.564 0-42.667-19.103-42.667-42.667S104.436 85.333 128 85.333s42.667 19.103 42.667 42.667-19.103 42.667-42.667 42.667zm83.687-110.994c0 8.483-6.877 15.36-15.36 15.36s-15.36-6.877-15.36-15.36 6.877-15.36 15.36-15.36 15.36 6.877 15.36 15.36z" fill="#fff"/></svg>