<svg xmlns="http://www.w3.org/2000/svg" viewBox="44.759 53.422 361.969 325.585" fill-rule="evenodd" xmlns:v="https://vecta.io/nano"><path d="M144.858 156.008c-19.433 1.805-36.286 13.803-40.943 29.148-1.833 6.037-1.879 6.341-1.877 12.255.007 19.952 8.244 28.197 45.932 45.976 18.518 8.736 25.923 17.194 26.004 29.704.14 21.455-22.698 32.133-51.416 24.04-2.852-.803-3.292-1.81-5.053-11.573-3.114-17.26-2.401-15.88-8.32-16.091-3.462-.124-4.329-.05-5.06.429l-.882.578v15.464c0 18.836-.098 18.227 3.11 19.419 12.168 4.522 36.476 6.653 46.758 4.099l3.863-.907c28.138-6.427 43.126-29.395 35.949-55.088-3.537-12.662-10.188-18.044-41.217-33.35-25.692-12.674-30.304-17.302-30.321-30.426-.024-18.522 20.725-28.666 43.301-21.169 5.028 1.67 5.595 2.501 6.871 10.069 3.235 19.186 2.994 18.74 9.969 18.423 3.345-.152 4.007-.665 4.382-3.396.377-2.753.246-30.603-.147-31.339-.672-1.256-4.271-2.498-10.701-3.692l-4.741-.881c-10.359-1.926-17.693-2.413-25.461-1.692m58.886 5.761c-.53 1.163-.487 4.209.08 5.781.505 1.398.592 1.425 6.706 2.077l10.963 1.307c2.353.345 2.204-1.554 2.23 28.346l1.008 74.758c2.925 24.889 25.71 39.259 60.952 38.442 26.978-.626 44.312-8.503 52.677-23.936.733-1.353 1.446-2.617 1.586-2.81.336-.466 2.048-5.687 2.686-8.193.689-2.704 1.115-23.157 1.441-69.314l.684-36.843c.515-.515 2.627-.828 10.461-1.551 3.284-.304 6.444-.669 7.024-.811 2.066-.51 3.228-5.056 1.835-7.183l-.622-.951h-29.817-29.818l-.727.925c-.557.708-.728 1.432-.728 3.083 0 3.725.584 4.068 8.077 4.742 13.699 1.233 13.103 1.052 13.449 4.081.571 4.985.049 94.448-.571 97.968-3.37 19.119-11.47 25.46-34.404 26.931-18.567 1.191-32.193-2.781-38.646-11.266-4.154-5.463-5.318-9.844-6.589-24.796-.439-5.173-.227-89.336.228-90.523.32-.835 1.884-1.213 6.831-1.651 14.901-1.321 15.288-1.498 14.576-6.674-.392-2.852 2.098-2.633-31.248-2.745l-29.911-.101-.413.907" fill="#bc3d35"/><path d="M214.92 56.968c-11.813.805-29.881 3.929-38.455 6.65-16.848 5.346-24.154 8.48-39.459 16.927-20.205 11.151-42.857 31.946-56.697 52.051-6.471 9.398-11.531 18.236-15.696 27.414-1.909 4.205-2.022 4.47-3.524 8.253l-1.752 4.389c-.494 1.209-1.984 5.513-2.795 8.078-.695 2.197-1.227 4.043-2.121 7.375l-.81 2.985c-.29 1.062-.695 2.8-.901 3.863l-.885 4.389c-4.624 22.322-4.569 49.683.144 70.764.195.869.5 2.371.678 3.337s.587 2.704.908 3.863.733 2.739.916 3.511c1.038 4.383 4.914 15.924 7.135 21.247 1.975 4.735 2.555 5.973 6.001 12.818 3.78 7.509 7.709 14.259 11.186 19.222l2.149 3.067 6 .006c7.224.007 6.923.249 4.302-3.463-3.586-5.079-7.779-11.592-10.252-15.924-2.977-5.216-5.092-9.442-8.574-17.131-3.974-8.774-8.562-23.54-10.421-33.538l-.905-4.741c-.175-.869-.552-3.397-.839-5.619l-.972-7.55c-.597-4.636-.611-25.509-.02-29.851l.983-7.55c1.02-8.087 3.048-17.41 5.653-25.988 1.426-4.696 4.56-13.43 5.732-15.979l2.299-5.092c15.169-33.699 42.322-61.961 76.198-79.309 3.214-1.646 10.284-4.976 10.565-4.976.103 0 2.351-.855 4.996-1.9 6.679-2.639 10.717-3.951 19.382-6.299 1.74-.471 7.863-1.789 12.467-2.682.966-.187 3.652-.583 5.97-.88l6.848-.909c10.201-1.431 33.01-.526 45.127 1.79 9.334 1.785 12.827 2.645 20.896 5.151 3.994 1.24 5.2 1.674 11.463 4.126 11.942 4.675 26.326 12.591 36.298 19.975l3.863 2.845c8.561 6.269 18.779 16.255 28.384 27.74 3.081 3.684 11.321 15.634 13.521 19.607l2.509 4.464c11.382 20.058 18.901 45.178 20.557 68.676 1.064 15.094-.278 34.964-3.155 46.707l-1.434 5.97c-4.749 19.892-14.091 39.873-27.502 58.824l-2.36 3.336 4.67.108c2.568.059 5.499.008 6.514-.113l1.844-.221 2.261-3.429c6.218-9.431 12.654-21.344 15.954-29.532l1.792-4.39c.167-.386.725-1.887 1.239-3.336l1.239-3.336c.167-.387.799-2.362 1.405-4.39l1.404-4.565c1.42-4.118 4.48-18.894 5.236-25.286l.747-5.619c1.245-8.092.947-30.259-.559-41.615-1.804-13.611-6.281-31.57-9.979-40.035-.169-.387-1.019-2.441-1.889-4.566a204.9 204.9 0 0 0-3.395-7.726l-2.383-5.092c-7.125-15.363-23.593-36.939-38.709-50.715-26.613-24.252-57.75-38.905-95.172-44.788-8.312-1.306-26.627-2.018-35.82-1.393M111.671 352.149c-6.939 3.093-5.484 10.115 3.025 14.599 4.566 2.407 5.848 4.019 5.07 6.376-.628 1.905-4.995 3.661-5.812 2.338-.12-.193-.468-.351-.775-.351s-1.206-.536-1.999-1.19c-1.352-1.117-1.737-1.706-3.124-4.78-.541-1.2-.555-1.119-.577 3.314l-.022 4.543.985-.944c1.204-1.154 1.259-1.155 3.722-.065 5.685 2.514 11.81-.899 11.793-6.571-.011-3.476-1.928-5.582-7.925-8.706-4.283-2.231-5.557-4.087-4.351-6.341 1.85-3.455 7.759-1.482 9.788 3.268 1.003 2.349 1.09 2.164 1.076-2.282l-.012-3.951-.791.965c-.953 1.165-1.09 1.174-3.069.199-1.985-.978-5.306-1.177-7.002-.421m22.952.164c-10.638 4.091-9.985 20.753.941 23.998 8.845 2.627 16.318-2.99 16.318-12.263 0-9.427-8.403-15.141-17.259-11.735m78.189.014c-12.68 5.585-8.919 24.54 4.87 24.54 14.017 0 17.678-20.272 4.462-24.705-2.475-.83-7.265-.746-9.332.165m62.311-.095c-6.653 2.691-9.742 10.735-6.694 17.435 4.506 9.905 19.063 9.585 23.041-.506 4.188-10.625-5.957-21.131-16.347-16.929m-119.603.387c2.382.594 2.332.346 2.332 11.605s.047 11.028-2.332 11.59c-.724.171 1.264.278 5.141.278 3.778 0 5.857-.11 5.166-.273-2.343-.556-2.532-1.005-2.532-6.024 0-5.174-.398-4.687 4.094-4.999 7.67-.533 9.728-7.942 3.281-11.81-.699-.419-2.451-.541-8.604-.594-4.722-.042-7.267.047-6.546.227m21.647-.079c2.619.376 2.634.443 2.634 11.684s-.015 11.308-2.634 11.684c-.579.083 1.791.156 5.268.162s5.926-.089 5.443-.211c-2.263-.572-2.272-.595-2.396-6.166l-.114-5.118h4.24 4.24v4.92c0 5.481-.169 5.904-2.551 6.36-.625.119 1.788.219 5.361.222s6.181-.064 5.794-.149c-3.087-.679-2.975-.237-2.975-11.704s-.112-11.025 2.975-11.704c.387-.085-2.221-.152-5.794-.149s-5.986.103-5.361.222c2.349.45 2.551.922 2.551 5.971 0 5.304.301 4.96-4.33 4.952-4.384-.007-4.177.261-4.039-5.238.127-5.038.163-5.124 2.399-5.689.483-.122-1.966-.217-5.443-.211s-5.847.079-5.268.162m56.19 0c2.613.375 2.634.466 2.634 11.502 0 10.939.034 10.766-2.288 11.593-1.347.48-1.24.498 2.814.484 2.906-.011 3.903-.109 3.211-.316-2.359-.707-2.333-.593-2.333-10.229 0-9.561.055-9.785 1.56-6.345l1.968 4.468 2.976 6.848c1.916 4.455 2.755 5.961 3.115 5.598.084-.085 2.037-4.698 4.339-10.252s4.291-9.991 4.42-9.862.235 4.287.235 9.24c0 9.915-.026 10.044-2.124 10.538-.767.181 1.107.285 5.109.285 3.878 0 5.865-.107 5.141-.278-2.378-.562-2.331-.331-2.331-11.566 0-11.283.027-11.414 2.407-11.713.608-.076-1.112-.164-3.822-.195l-4.926-.056-1.112 2.897c-1.671 4.355-4.957 12.264-5.195 12.501-.319.32-.564-.191-3.859-8.065l-3.068-7.333-4.963.052c-2.729.029-4.488.121-3.908.204m62.318.086c2.121.525 2.124.542 2.124 11.669 0 11.207.042 11.005-2.377 11.564-.527.122 1.886.22 5.362.217s5.811-.102 5.186-.221c-2.351-.45-2.552-.921-2.552-5.979 0-6.662.44-6.583 5.585 1.005l3.584 5.283 3.932-.002c3.742-.002 3.882-.028 2.903-.539-1.15-.599-.974-.382-5.223-6.455l-3.092-4.417 1.253-.558c5.023-2.237 5.419-8.232.722-10.925-1.357-.778-1.738-.811-10.015-.875-5.325-.041-8.142.048-7.392.233m25.829-.086c2.614.375 2.634.464 2.634 11.522 0 11.115-.092 11.542-2.554 11.849-.624.077 3.544.166 9.261.197l10.394.056.514-3.687c.583-4.185.422-4.496-.914-1.765-1.475 3.014-3.9 4.384-7.779 4.393-3.171.008-3.303-.228-3.303-5.904v-4.626h.976c1.847 0 3.911 2.534 3.933 4.829.004.435.166.79.359.79.221 0 .351-2.341.351-6.321 0-6.021-.343-8.007-.843-4.88-.46 2.875-1.682 4.177-3.921 4.177h-.855v-4.916-4.917h2.824c4.207 0 5.671.847 6.832 3.951.923 2.469 1.231 2.053 1.231-1.668v-3.336l-10.097.052c-5.553.029-9.622.121-9.043.204m-179.87.618c5.582 2.332 5.757 19.307.226 22.024-5.3 2.604-8.648-2.285-8.358-12.208.234-8.012 3.375-11.804 8.132-9.816m78.495.15c5.281 2.693 5.342 18.165.086 21.707-4.743 3.196-8.624-1.66-8.624-10.791s3.434-13.52 8.538-10.916m62.407.194c4.414 2.587 5.069 16.783.951 20.623-5.125 4.78-9.744.087-9.744-9.901 0-9.306 3.639-13.743 8.793-10.722m-116.069.368c3.889 2.011 2.414 10.003-1.845 10.003h-1.327v-5.268-5.268h1.071c.589 0 1.535.24 2.101.533m142.223.257c4.389 2.986 1.958 9.746-3.505 9.746h-1.767v-5.268-5.268h2.055c1.553 0 2.339.193 3.217.79" fill="#2474ac"/></svg>
