<svg xmlns="http://www.w3.org/2000/svg" width="400" height="400" viewBox="0 0 400 NaN" fill-rule="evenodd" xmlns:v="https://vecta.io/nano"><path d="M121.577 123.944c-15.068.88-27.102 7.088-35.591 18.362-11.313 15.024-9.441 36.207 4.219 47.755 6.933 5.861 13.677 9.737 29.421 16.909 21.314 9.71 29.228 18.066 29.293 30.928.098 19.501-19.43 29.614-46.403 24.03-6.933-1.435-6.804-1.273-8.344-10.495-2.292-13.728-2.817-15.99-3.911-16.851-1.074-.844-8.92-.847-9.763-.004-.54.54-.553.922-.553 16.053 0 16.679.016 16.887 1.429 17.787 1.916 1.222 18.13 4.662 24.988 5.302 37.124 3.465 64.06-16.101 62.263-45.228-1.183-19.187-8.273-26.464-40.686-41.763-23.674-11.174-29.379-16.334-30.439-27.531-1.823-19.247 18.485-30.59 41.504-23.182 5.206 1.676 5.705 2.09 6.369 5.289.358 1.724 2.202 12.142 2.923 16.51.864 5.239 1.812 6.117 6.502 6.026 6.105-.119 5.667 1.295 5.578-18.012l-.072-15.581-.977-.895c-2.483-2.276-27.752-6.494-33.877-5.656-.153.021-1.895.132-3.873.247m84.785 4.886l-28.354.071-.484.587c-1.378 1.672-.483 6.934 1.238 7.276 1.005.199 8.286.992 12.758 1.39 3.553.316 4.187.445 4.703.961l.596.597.025 39.895c.033 51.744.268 58.731 2.196 65.317 7.001 23.912 35.02 35.302 73.158 29.74 20.912-3.049 35.659-14.663 39.67-31.242 1.436-5.935 1.374-3.696 1.536-55.482.16-51.279.086-48.65 1.391-49.348.25-.134 3.31-.499 6.8-.811 9.44-.843 9.566-.859 10.399-1.289 1.536-.795 2.192-5.625.951-7.001l-.527-.584H303.44h-28.979l-.716.851c-.965 1.147-1.062 4.721-.158 5.869.918 1.168 1.092 1.197 14.371 2.411 4.687.429 5.724.601 6.017 1.002.448.613.515 84.97.072 91.389-1.613 23.399-10.874 31.493-36.924 32.273-20.866.625-33.873-5.459-38.251-17.892-1.366-3.877-2.335-10.818-2.821-20.19-.341-6.59-.053-84.273.316-84.991.499-.973 1.728-1.28 6.341-1.585 9.764-.646 13.481-1.248 14.221-2.304.718-1.025.575-5.24-.207-6.115-.836-.935 1.452-.875-30.36-.795" fill="#ba3c36"/><path d="M191.148 27.825c-22.262 1.471-40.764 5.638-58.506 13.176l-3.458 1.464c-2.929 1.231-14.835 7.412-18.396 9.549C38.32 95.529 8.005 183.69 38.358 262.656c4.649 12.095 12.902 27.574 19.128 35.879l.976 1.3 6.039.004c3.321.002 6.038-.097 6.038-.221s-.812-1.333-1.806-2.688C37.059 253.741 28.31 198.48 45.22 148.409 78.316 50.411 193.907 7.736 282.434 60.832c7.585 4.548 16.295 10.757 21.565 15.371 11.198 9.805 18.508 17.682 26.113 28.14 42.003 57.758 41.841 134.395-.408 192.244-1.199 1.642-2.18 3.043-2.18 3.113 0 .445 12.148.146 12.605-.311.937-.937 6.48-9.624 9.229-14.465 27.278-48.029 29.511-108.623 5.827-158.135l-1.935-4.125c0-.488-6.058-11.071-8.675-15.156-29.303-45.734-77.051-74.512-131.574-79.298-3.258-.287-19.118-.566-21.853-.385M79.253 311.668c-4.839 1.087-7.232 5.626-5.134 9.738.801 1.569 2.788 3.179 6.089 4.93 5.415 2.872 6.844 4.995 4.968 7.38-3.087 3.925-9.674.715-11.145-5.431-.455-1.898-.725-.532-.725 3.665 0 4.5.086 4.848.961 3.88.783-.864 1.288-.886 3.46-.147 6.09 2.071 11.466-.627 11.829-5.936.259-3.788-1.541-5.856-7.952-9.134-4.172-2.134-5.322-3.733-4.273-5.944 1.764-3.716 8.956-1.251 9.971 3.418.642 2.95 1.042 1.491.802-2.921-.203-3.726-.219-3.801-.638-2.925-.527 1.102-.736 1.106-3.662.074-2.212-.78-3.281-.932-4.551-.647m151.867 0c-3.931.883-6.308 3.991-5.826 7.621.36 2.716 2.31 4.74 6.837 7.097 5.274 2.745 6.767 4.973 4.912 7.33-2.986 3.797-9.273.944-11.053-5.016-.619-2.071-.817-1.281-.817 3.25 0 2.435.075 4.426.167 4.426s.538-.311.99-.691c.992-.835 1.205-.846 2.853-.139 5.999 2.571 12.281-.647 12.305-6.304.014-3.38-2.025-5.551-8.211-8.745-4.015-2.073-5.113-3.648-4.072-5.842 1.784-3.758 8.168-1.632 9.828 3.272 1.006 2.973 1.275 1.636.823-4.096-.189-2.391-.211-2.454-.551-1.59-.434 1.098-.903 1.133-3.184.24-1.703-.668-3.99-1.039-5.001-.813m26.912 1.825l-7.941 18.055c-.912 1.981-2.359 3.722-3.093 3.722-.289 0-.525.16-.525.356 0 .291 6.726.486 7.746.224.392-.101-.798-.572-1.453-.576-1.866-.01-2.218-1.325-1.116-4.159l.752-1.931h4.231 4.232l.685 1.55c1.619 3.66 1.556 4.341-.433 4.677-2.198.371-.749.549 4.071.5 6.773-.07 6.516-.047 5.49-.5-1.642-.726-1.765-.952-6.643-12.313-5.685-13.237-4.939-12.043-6.003-9.605m-162.596 1.721c0 1.937.108 3.182.276 3.182.152 0 .277-.225.277-.499 0-2.401 2.435-4.481 5.245-4.481h1.671v10.478c0 11.761.157 10.918-2.16 11.542l-1.298.35 1.521.036c6.162.148 10.776.102 10.706-.107-.045-.136-.51-.294-1.034-.351-2.106-.23-2.055.044-2.146-11.582l-.082-10.366h2.094 2.095l1.236 1.237c.833.832 1.346 1.645 1.572 2.489.633 2.367 1.021.835.82-3.242l-.092-1.867h-10.351-10.35v3.181m23.098-2.904c-.098.158.144.276.563.276 2.418 0 2.614.863 2.616 11.565.003 8.241.387 9.467 3.549 11.326 1.802 1.06 7.753 1.153 9.625.152 3.884-2.078 4.085-2.691 4.255-12.993l.139-8.346.666-.709c.367-.39 1.083-.787 1.591-.883 2.01-.377.733-.665-2.949-.665-3.727 0-5.024.312-2.928.706 2.29.429 2.486 1.341 2.332 10.842-.146 9.085-1.075 10.884-5.722 11.089-4.748.209-5.162-.719-5.162-11.572 0-10.34.043-10.512 2.641-10.512.449 0 .817-.124.817-.276 0-.176-2.161-.277-5.931-.277-3.656 0-5.997.106-6.102.277m25.034-.03c0 .135.322.327.716.426 1.34.336 1.814 1.053 6.441 9.74l2.525 4.742v3.198c0 4.35-.513 5.152-3.296 5.159-.368.001-.588.082-.489.181.23.23 10.795.308 12.084.09l.968-.163-1.334-.212c-2.277-.361-2.401-.637-2.397-5.358.003-3.767.053-4.165.647-5.187 6.314-10.848 6.84-11.629 8.107-12.047 1.645-.543.7-.816-2.826-.816-3.567 0-4.318.267-2.23.793 1.668.42 1.748.987.487 3.441-1.962 3.816-4.816 8.526-5.031 8.302-.527-.553-5.251-9.743-5.406-10.517-.187-.933.368-1.466 1.528-1.466.314 0 .571-.124.571-.276 0-.175-2.028-.277-5.532-.277-3.055 0-5.533.111-5.533.247m25.727-.004c0 .134.38.401.844.593 1.13.468.775-.285 8.832 18.735 2.045 4.827 2.492 5.42 2.997 3.971.496-1.422 8.341-18.932 9.119-20.352.414-.756 1.188-1.666 1.721-2.022 1.598-1.069 1.378-1.168-2.605-1.168-3.656 0-4.824.294-2.72.684 2.065.384 2.456 1.47 1.45 4.023-.894 2.269-5.033 11.734-5.226 11.952-.244.274-5.868-13.229-6.043-14.508-.153-1.115.457-1.598 2.022-1.598.371 0 .674-.124.674-.276 0-.175-2.029-.277-5.533-.277-3.043 0-5.532.11-5.532.243m26.002-.002c0 .133.477.318 1.06.411 2.174.348 2.122.067 2.122 11.381 0 11.306.06 10.981-2.1 11.346-.595.101-1.082.265-1.082.366 0 .136 16.488.188 19.669.062.44-.017 1.629-7.027 1.256-7.401-.08-.079-.505.647-.945 1.614-1.493 3.281-3.891 4.663-8.092 4.663-3.134 0-3.151-.029-3.267-5.699l-.093-4.536h.863c2.185 0 3.761 1.657 4.277 4.495.464 2.553.717.724.717-5.186 0-6.641-.146-7.329-.919-4.328-.578 2.243-1.492 3.276-3.246 3.67-1.598.36-1.596.367-1.631-5.063l-.03-4.653 2.844.003c4.451.004 6.174 1.054 7.148 4.354.584 1.977.813 1.333.813-2.282v-3.458h-9.682c-5.325 0-9.682.109-9.682.241m76.902.023c0 .146.436.346.97.446.666.125 1.228.509 1.798 1.228l.828 1.046-.001 8.674c-.002 10.638-.155 11.33-2.565 11.646-1.986.261-.227.586 3.327.616 3.681.031 4.953-.189 3.181-.552-2.82-.576-2.858-.721-2.77-10.532l.073-8.234 5.931 7.45c10.582 13.291 10.229 12.876 10.26 12.084.004-.114.035-5.006.069-10.87.071-12.42-.01-12.01 2.493-12.559 1.744-.383.242-.707-3.278-.707-3.98 0-4.481.173-2.405.83 1.946.617 1.997.821 2.002 7.994l.004 6.197-2.332-3.015-8.22-10.554-1.149-1.452h-4.108c-2.424 0-4.108.108-4.108.264m26.556 2.917c0 3.129.34 4.187.71 2.212.468-2.496 2.5-4.01 5.38-4.01h1.681l-.082 10.345c-.092 11.633-.025 11.274-2.169 11.617-2.43.389-.789.583 4.841.573 5.79-.011 7.33-.158 5.209-.499-.576-.093-1.327-.366-1.669-.606l-.623-.438v-10.496-10.496h1.823c2.741 0 4.186 1.249 5.201 4.495.426 1.364.722.26.722-2.697v-3.181h-10.512-10.512v3.181m-40.216 8.507c.931 2.168 1.639 4.035 1.574 4.149-.156.275-6.654.269-6.824-.006-.141-.229 3.178-8.085 3.416-8.085.078 0 .903 1.774 1.834 3.942" fill="#2671ac"/><path d="M0 200v200h200 200V200 0H200 0v200M212.725 28.082c37.703 3.211 71.978 17.642 100.191 42.185C315 72.08 326.633 83.65 328.354 85.621c1.954 2.238 5.288 6.281 7.523 9.123 2.291 2.912 8.514 11.902 9.766 14.108.432.761.935 1.57 1.118 1.798 1.059 1.321 6.975 12.543 9.489 18 2.813 6.105 7.051 17.476 8.499 22.802 2.589 9.52 3.596 13.983 4.706 20.849 6.246 38.641-.593 77.876-19.469 111.699-3.124 5.597-2.946 5.305-6.971 11.433l-2.904 4.422-6.432.004c-3.537.001-6.431-.059-6.431-.134s1.118-1.636 2.485-3.469c6.775-9.083 13.434-20.588 17.848-30.834l1.799-4.15c2.526-5.726 6.286-17.886 8.14-26.325 10.14-46.15-.473-94.843-28.84-132.319-6.983-9.226-16.775-19.639-24.392-25.938-18.849-15.588-37.25-25.556-59.128-32.027-48.248-14.272-100.183-5.419-141.011 24.037-2.757 1.99-4.384 3.253-8.575 6.66-17.238 14.012-32.524 33.554-42.535 54.377-9.83 20.448-14.888 40.739-15.981 64.11-1.067 22.817 4.042 50.611 12.852 69.912.487 1.067 1.053 2.375 1.259 2.908s1.634 3.457 3.174 6.5c2.333 4.61 3.98 7.521 7.979 14.104.421.694 4.125 6.272 4.411 6.643.117.152.763 1.024 1.435 1.937s1.41 1.869 1.64 2.125.627.785.883 1.176l.465.71h-6.52-6.521l-2.725-4.081c-6.06-9.074-11.557-19.405-15.785-29.668-23.396-56.781-15.028-121.532 22.018-170.377 1.453-1.915 3.379-4.353 4.281-5.418l2.928-3.458c7.386-8.722 18.405-18.794 29.165-26.658 11.876-8.679 27.256-16.835 41.837-22.185 22.632-8.304 49.325-11.942 72.891-9.935m-74.042 96.235c11.141 1.473 20.109 3.7 21.276 5.283.624.847.613.502.543 17.768l-.059 14.726-.807.903-.807.903h-3.874c-6.229 0-5.558 1.446-9.183-19.778-1.002-5.867-1.181-6.108-5.659-7.602-19.622-6.548-37.84-.26-41.665 14.379-2.469 9.451.705 18.588 8.397 24.173 3.426 2.487 23.73 13.31 24.97 13.31.353 0 13.007 6.427 15.226 7.733 16.228 9.553 22.105 19.343 21.626 36.024-.331 11.531-4.389 20.794-12.212 27.877l-1.462 1.355c-2.026 2.005-7.953 5.66-12.549 7.74-12.224 5.531-31.751 6.725-48.051 2.938-7.149-1.662-12.966-3.253-13.443-3.678-.948-.845-.994-1.639-1.013-17.682l-.018-15.973.635-.515c.574-.466 1.056-.505 4.997-.404 6.121.155 5.468-.754 7.508 10.463l1.554 8.852c1.021 6.594 1.439 7.148 6.23 8.286 22.35 5.309 41.655-.899 46.472-14.944 3.936-11.477.217-21.607-11.158-30.388-2.332-1.8-8.062-4.914-15.001-8.151-11.414-5.326-16.822-8.015-19.911-9.903l-3.596-2.176c-1.569-.908-6.901-5.061-8.576-6.679-.989-.955-1.891-1.708-2.005-1.671s-.208-.047-.208-.185-.586-.972-1.303-1.852c-8.844-10.856-9.54-27.682-1.671-40.359 10.398-16.751 29.746-24.086 54.797-20.773m97.633 4.613c1.953.89 1.747 6.976-.263 7.74-1.379.525-11.568 1.638-15.029 1.643-2.377.003-3.771.417-4.342 1.288-.591.902-.925 78.793-.373 87.093.683 10.26 1.906 16.949 3.784 20.689a22.91 22.91 0 0 0 6.961 8.278c12.339 9.135 44.367 9.376 55.951.421 2.089-1.614 5.792-5.511 5.792-6.095 0-.07.43-.842.956-1.716 1.888-3.135 3.242-8.36 3.942-15.214.799-7.816.747-93.097-.057-93.894-.475-.471-1.297-.611-5.81-.987-15.206-1.269-15.388-1.343-15.007-6.088.307-3.823-2.69-3.5 31.526-3.401 32.638.095 29.072-.33 29.216 3.48.155 4.082-.544 4.844-4.741 5.164-10.491.801-13.828 1.217-14.41 1.8l-.581.58-.16 47.503c-.171 50.716-.15 49.94-1.522 55.855-3.62 15.609-17.237 27.429-35.8 31.076-16.521 3.245-38.493 2.273-50.849-2.249-3.741-1.369-11.319-5.449-12.222-6.579-.076-.095-.842-.708-1.702-1.361-7.011-5.326-12.227-14.256-13.781-23.592-.727-4.37-.908-13.829-1.077-56.364l-.176-44.353-.622-.504c-.443-.359-1.32-.557-3.043-.686-1.331-.1-4.412-.413-6.847-.695l-6.158-.701c-2.776-.299-2.97-.579-2.97-4.281 0-4.684-3.87-4.149 30.031-4.149l29.383.299M84.369 312.328c2.072.882 3.045.73 3.045-.476 0-.205.186-.372.414-.372.349 0 .415.599.415 3.734 0 2.054.032 3.826.07 3.939s-.149.245-.415.296c-.323.062-.484-.08-.484-.426 0-3.792-5.82-7.408-8.745-5.433-2.91 1.965-1.786 4.409 3.221 7 6.352 3.286 7.85 4.966 7.834 8.789-.022 5.443-5.505 8.575-11.577 6.613-2.745-.887-3.01-.889-3.685-.031-1.154 1.467-1.299 1.025-1.241-3.803.043-3.654.128-4.511.45-4.578.266-.056.463.262.593.958 1.103 5.876 8.478 8.919 11.035 4.552 1.249-2.132-.205-4.027-4.998-6.517-5.218-2.712-7.001-4.813-6.989-8.237.019-5.484 5.408-8.412 11.057-6.008m151.855-.016c2.143.845 3.057.707 3.057-.46 0-.205.186-.372.415-.372.349 0 .415.63.415 4.011 0 4.052-.467 5.543-.974 3.112-.943-4.527-6.654-7.33-9.262-4.547-1.714 1.829-.837 3.899 2.419 5.712l4.09 2.277c9.926 5.531 4.481 17.453-6.37 13.947-2.741-.886-2.93-.887-3.74-.025-1.115 1.187-1.236.809-1.283-3.986-.046-4.784.379-5.941 1.174-3.195 1.78 6.147 9.221 8.894 11.07 4.086.872-2.265-.263-3.781-4.455-5.95-5.85-3.027-7.607-5.007-7.607-8.569 0-5.461 5.248-8.33 11.051-6.041m25.367 4.709l2.852 6.63c3.239 7.944 5.005 11.196 6.247 11.508.374.094.679.344.679.556 0 .316-1.031.385-5.809.385-4.979 0-5.809-.06-5.809-.415 0-.279.279-.415.848-.415 2.059 0 2.294-.699 1.183-3.524-1.08-2.748-.746-2.587-5.183-2.5l-3.902.076-.647 1.306c-1.382 2.785-.832 4.642 1.376 4.642.52 0 .793.142.793.415 0 .349-.631.415-4.012.415s-4.011-.066-4.011-.415c0-.229.159-.415.352-.415 1.309 0 2.716-2.085 5.041-7.469l4.514-10.327 1.712-3.856c1.196-2.752 1.034-2.898 3.776 3.403m-145.192-1.76c-.086 3.55-.453 4.285-1.059 2.12-.716-2.558-3.263-4.281-5.796-3.924l-.692.098-.072 10.281-.073 10.282.732.576a3.08 3.08 0 0 0 1.663.576c.643 0 .931.128.931.415 0 .356-.876.415-6.224.415s-6.224-.059-6.224-.415c0-.288.289-.415.938-.415.515 0 1.231-.238 1.59-.529l.653-.528.079-10.399.079-10.398h-.826c-3.112 0-4.93 1.195-5.743 3.774-.802 2.545-1.196 1.94-1.196-1.837v-3.32h10.659 10.659l-.078 3.228m14.168-2.813c0 .296-.301.415-1.054.415-2.267 0-2.266-.001-2.259 9.347.008 9.265.111 10.058 1.473 11.31 2.814 2.585 7.88.731 8.722-3.191.442-2.064.405-15.798-.044-16.383-.481-.627-1.431-1.083-2.255-1.083-.447 0-.71-.154-.71-.415 0-.35.645-.415 4.149-.415s4.15.065 4.15.415c0 .269-.27.415-.769.415-2.283 0-2.511.886-2.608 10.117l-.081 7.766-.837 1.639c-2.889 5.665-13.44 5.788-16.211.189-.631-1.274-.656-1.584-.792-9.932-.158-9.667-.182-9.779-2.12-9.779-.638 0-.925-.129-.925-.415 0-.356.86-.415 6.085-.415s6.086.059 6.086.415m24.276-.076c-.062.186-.519.422-1.017.523-1.597.327-1.618.577-.264 3.215 1.878 3.656 4.17 7.929 4.386 8.174.179.204 4.337-6.695 5.433-9.015.714-1.509.389-1.916-2.057-2.58-1.262-.343.439-.656 3.561-.656 3.592 0 4.888.442 2.819.961-1.248.313-1.641.851-5.865 8.03l-3.092 5.255.092 3.97c.106 4.608.32 5.021 2.602 5.021.895 0 1.215.109 1.215.415 0 .357-.922.415-6.639.415s-6.639-.058-6.639-.415c0-.292.294-.415.986-.415 1.013 0 2.039-.403 2.398-.941.112-.167.205-1.877.207-3.799l.005-3.495-1.888-3.559c-4.817-9.084-5.733-10.474-7.028-10.665-.321-.047-.636-.242-.698-.432-.089-.269 1.18-.346 5.741-.346 4.496 0 5.829.079 5.742.339m25.655.076c0 .152-.498.343-1.107.425-2.489.333-2.629-.247 3.247 13.464 1.042 2.433.929 2.502 2.697-1.643l2.26-5.17c2.236-4.887 2.227-6.192-.048-6.555-2.704-.433-1.214-.936 2.771-.936 3.258 0 3.873.066 3.873.415 0 .228-.183.415-.405.415-1.643 0-2.818 2.265-11.093 21.38-1.39 3.212-1.407 3.199-4.107-3.123l-5.584-13.278c-1.148-2.939-2.182-4.542-3.1-4.805-2.506-.719-.971-1.016 4.856-.94 3.592.047 5.74.178 5.74.351m34.44 3.181c0 4.088-.401 4.769-1.262 2.144-1.029-3.138-2.396-4.006-6.729-4.27l-2.798-.17v4.919 4.919l1.138-.153c1.884-.252 3.273-2.124 3.619-4.877.481-3.821 1.16 4.952.83 10.715-.106 1.844-.595 1.782-1.025-.13-.578-2.566-1.746-3.829-3.732-4.035l-.691-.071-.08 4.149c-.043 2.282-.012 4.42.069 4.75.453 1.835 6.648 1.358 8.827-.681 1.025-.958 2.387-3.065 2.387-3.692 0-.574.509-.953.825-.616.123.132-.009 1.795-.293 3.697l-.525 3.665c-.015.45-20.477.243-20.477-.207 0-.287.288-.415.931-.415.523 0 1.25-.252 1.659-.574l.729-.573v-9.901c0-11.355-.001-11.359-2.233-11.359-.781 0-1.086-.116-1.086-.415 0-.361 1.291-.415 9.958-.415h9.959v3.596m71.2 3.464l5.757 7.221c.162.1.227-2.093.172-5.759-.103-6.819-.217-7.217-2.184-7.606-2.287-.452-1.254-.777 2.717-.854 3.252-.064 3.942-.008 3.942.315 0 .225-.394.465-.93.566-2.024.38-1.965.02-2.053 12.502-.062 8.891-.151 11.175-.434 11.175-.31 0-2.552-2.554-3.775-4.301-.228-.325-.875-1.14-1.436-1.811s-3.218-3.988-5.902-7.374l-4.979-6.155c-.247 0-.118 15.067.137 16.013.354 1.315 1.105 2.009 2.401 2.219 2.24.364.797.72-3.222.794-3.569.065-4.15.017-4.15-.346 0-.241.243-.422.567-.422 2.576 0 2.753-.732 2.753-11.381v-9.132l-.812-.812c-.447-.447-1.194-.888-1.66-.982s-.848-.34-.848-.549c0-.307.824-.381 4.222-.381h4.221l5.496 7.06m33.641-3.74c0 2.766-.069 3.319-.415 3.319-.228 0-.418-.218-.421-.484-.031-2.458-2.16-4.408-5.113-4.684l-1.797-.168v10.289 10.288l.732.678c.475.44 1.058.679 1.66.679.64 0 .928.128.928.415 0 .356-.876.415-6.224.415s-6.224-.059-6.224-.415c0-.287.287-.415.93-.415.523 0 1.251-.252 1.66-.574l.729-.573V323.77v-10.354l-.899.007c-3.18.024-5.149 1.495-5.728 4.281-.441 2.119-.979.888-1.058-2.42l-.078-3.251h10.659 10.659v3.32m-63.418 5.41c-.577 1.127-2.972 6.663-2.972 6.869 0 .093 1.492.169 3.315.169h3.316l-.526-1.314-1.621-3.926-1.095-2.612-.417.814" fill="#fbfbfb"/><path d="M189.972 27.863c.495.061 1.304.061 1.798 0s.09-.112-.899-.112-1.393.05-.899.112m16.598 0c.494.061 1.303.061 1.798 0s.09-.112-.899-.112-1.394.05-.899.112m-20.744.272c.344.066.842.063 1.107-.006s-.017-.123-.626-.12-.825.06-.481.126m25.45 0c.344.066.842.063 1.106-.006s-.017-.123-.625-.12-.825.06-.481.126m-28.769.276c.344.067.842.064 1.106-.005s-.017-.124-.625-.12-.825.059-.481.125m-5.121.549a2.29 2.29 0 0 0 .968 0c.266-.07.048-.127-.484-.127s-.75.057-.484.127m13.963 9.137c.491.061 1.363.062 1.937.003s.172-.11-.893-.112-1.535.048-1.044.109m13.292.004c.65.058 1.646.057 2.213-.002s.034-.108-1.183-.107-1.681.05-1.03.109m-17.708.269c.344.066.842.064 1.106-.006s-.017-.123-.625-.12-.825.06-.481.126m-3.461.272a2.29 2.29 0 0 0 .968 0c.266-.07.048-.127-.484-.127s-.751.057-.484.127m30.293.005c.344.066.842.063 1.107-.006s-.017-.123-.626-.12-.825.059-.481.126m-32.918.276c.344.066.842.064 1.106-.005s-.017-.124-.625-.121-.825.06-.481.126m-25.245 4.784c-.349.15-.4.238-.139.238.229 0 .664-.107.969-.238.348-.15.399-.238.138-.238-.228 0-.664.107-.968.238m116.874.415c.38.217.816.395.968.395s-.035-.178-.415-.395-.816-.396-.968-.396.034.178.415.396m-150.553 1.539c-.875.451-1.591.883-1.591.959 0 .123 3.292-1.444 3.573-1.701.362-.332-.601.029-1.982.742m-5.533 2.907c-1.034.561-.971.794.069.256.457-.236.83-.488.83-.56 0-.178-.03-.168-.899.304m-6.501 3.746c-.943.604-1.248 1.009-.415.551.635-.348 1.629-1.117 1.453-1.123-.076-.002-.543.255-1.038.572m158.437 1.213c.685.367 1.37.667 1.522.667s-.284-.3-.968-.667-1.37-.667-1.522-.667.284.3.968.667m23.375 1.113c.84.682 1.629 1.082 1.399.711-.104-.169-.586-.498-1.071-.733-.818-.396-.841-.394-.328.022m-169.778 2.64c-.571.301-1.038.61-1.038.685s.498-.116 1.107-.427 1.106-.624 1.106-.697c0-.181-.002-.18-1.175.439M98.84 59.633l-.776.712.899-.626c.494-.344.899-.664.899-.712 0-.218-.306-.031-1.022.626m200.812.279c.09.146.756.691 1.48 1.211s1.242.826 1.152.68-.756-.691-1.48-1.211-1.242-.826-1.152-.68m-203.179 1.37c-.723.53-1.314 1.025-1.314 1.099s.622-.312 1.383-.858c1.182-.85 1.607-1.241 1.314-1.212-.038.004-.66.441-1.383.971m18.672-.116c-.943.604-1.248 1.009-.415.551.635-.348 1.629-1.117 1.453-1.123-.076-.002-.543.255-1.038.572m-21.646 2.352L91.84 64.93c-.229.242.363-.147 1.314-.864l1.728-1.427c0-.192-.065-.15-1.383.879m18.05-.139c-.943.604-1.248 1.009-.415.551.635-.348 1.629-1.117 1.452-1.123-.076-.002-.542.255-1.037.572m174.896.113c.841.682 1.629 1.082 1.399.711-.104-.169-.586-.498-1.07-.733-.819-.396-.842-.394-.329.022M88.728 67.374l-2.144 1.944c0 .075.996-.698 2.213-1.717 1.966-1.646 2.389-2.048 2.144-2.038-.039.001-1.034.817-2.213 1.811m218.879-1.453c0 .18 4.901 4.342 5.112 4.342.16 0-1.06-1.095-3.521-3.159-.875-.734-1.591-1.266-1.591-1.183m-16.874.293c0 .076.374.404.83.729s.83.529.83.453-.374-.404-.83-.729-.83-.529-.83-.453m-185.754 1.722l-.83.713.899-.595c.495-.327.899-.649.899-.715 0-.207-.117-.135-.968.597m189.627 1.03c0 .069.457.473 1.015.899s.929.634.822.461c-.219-.354-1.837-1.552-1.837-1.36M85.045 70.609l-.813.899.899-.813c.838-.757 1.027-.985.813-.985-.048 0-.452.404-.899.899m211.774.031c0 .076.373.404.83.729s.83.529.83.453-.374-.404-.83-.729-.83-.529-.83-.453m17.349 1.017c.641.664 1.22 1.15 1.287 1.082s-.458-.612-1.166-1.206l-1.288-1.082 1.167 1.206m-214.445.158l-1.106.99 1.176-.88c1.011-.756 1.376-1.121 1.106-1.105-.038.002-.567.45-1.176.995m-17.161 1.007l-1.373 1.452 1.453-1.373 1.452-1.452c0-.207-.256.023-1.532 1.373m14.147 1.31c-1.972 1.631-2.955 2.648-1.412 1.46 1.381-1.062 3.367-2.818 3.182-2.813-.077.003-.873.611-1.77 1.353m220.292.073c1.146 1.221 1.395 1.441 1.395 1.233 0-.044-.592-.636-1.314-1.314l-1.314-1.233 1.233 1.314m-16.586-.825c0 .064.622.641 1.383 1.282s1.378 1.065 1.371.942c-.011-.225-2.754-2.439-2.754-2.224M77.173 77.939l-2.899 2.974 2.974-2.9 2.973-2.973c0-.2-.354.137-3.048 2.899m242.329-1.176c.516.533 1.001.969 1.077.969s-.284-.436-.8-.969-1.001-.968-1.077-.968.284.436.8.968m-13.555 1.384c.517.532 1.001.968 1.077.968s-.284-.436-.8-.968-1.001-.969-1.077-.969.284.436.8.969m2.628 2.351c.595.609 1.143 1.106 1.219 1.106s-.348-.497-.942-1.106-1.143-1.107-1.219-1.107.348.498.942 1.107m15.63.968l1.641 1.522c.076 0-.538-.685-1.365-1.522l-1.641-1.521c-.076 0 .538.684 1.365 1.521M86.99 82.78l-1.651 1.729 1.729-1.651c1.606-1.534 1.855-1.807 1.651-1.807-.043 0-.821.778-1.729 1.729m-14.514-.074c-.228.29-1.206 1.406-2.173 2.479l-1.629 1.952c.071 0 1.152-1.12 2.404-2.49s2.171-2.485 2.044-2.479-.418.248-.646.538m241.217 2.633l2.755 2.628c.076 0-1.039-1.183-2.478-2.628l-2.756-2.628c-.076 0 1.04 1.182 2.479 2.628M82.152 87.621l-2.622 2.697 2.697-2.622 2.622-2.772c-.041 0-1.254 1.214-2.697 2.697m246.755-.951c0 .048.397.452.882.899l.881.813-.674-.884c-.572-.751-1.089-1.143-1.089-.828m-261.25 1.513l-.531.752.739-.671c.776-.704.871-.856.531-.842-.115.005-.447.347-.739.761m250.727 2.066c1.146 1.221 1.395 1.441 1.395 1.233 0-.044-.592-.635-1.314-1.314l-1.314-1.233 1.233 1.314m14.119.622c.358.381.697.692.753.692.23 0-.91-1.366-1.147-1.375-.14-.004.037.303.394.683M78.129 91.909l-.812.899.899-.813c.838-.757 1.026-.985.812-.985-.047 0-.452.404-.899.899m-13.952.484c-.482.608-.814 1.106-.738 1.106s.533-.498 1.015-1.106.814-1.107.738-1.107-.533.498-1.015 1.107m257.538 1.66l1.855 1.936c.076 0-.634-.871-1.578-1.936l-1.855-1.937c-.076 0 .634.872 1.578 1.937m-245.658.207l-.953 1.037 1.037-.953c.966-.887 1.165-1.121.953-1.121-.046 0-.513.466-1.037 1.037m259.204 0c.804 1.069 1.115 1.366 1.115 1.068 0-.059-.45-.588-1-1.176l-1.001-1.068.886 1.176m-273.176.808c-.426.559-.633.928-.461.822.354-.219 1.552-1.837 1.36-1.837-.068 0-.473.457-.899 1.015m11.774 1.751c-.637.761-1.096 1.383-1.02 1.383s.66-.622 1.297-1.383 1.095-1.383 1.019-1.383-.659.622-1.296 1.383m250.899.83c.637.76 1.22 1.383 1.296 1.383s-.383-.623-1.019-1.383-1.221-1.383-1.297-1.383.383.622 1.02 1.383m13.122.091c.426.558.831 1.015.899 1.015.192 0-1.005-1.618-1.359-1.837-.173-.107.034.263.46.822M58.921 99.308c-.325.457-.529.83-.452.83s.404-.373.729-.83.528-.829.452-.829-.404.373-.729.829m268.044 1.099c.322.451.726.908.899 1.015s-.035-.263-.461-.821c-.924-1.213-1.273-1.367-.438-.194m1.66 2.213c.321.451.726.908.899 1.015s-.035-.263-.461-.821c-.925-1.213-1.273-1.367-.438-.194M68.05 104.288c-.325.456-.529.83-.453.83s.404-.374.729-.83.529-.83.453-.83-.404.373-.729.83m276.255 2.835c1.418 2.223 2.207 3.183 1.194 1.452-.891-1.522-2.209-3.457-2.353-3.457-.066 0 .456.902 1.159 2.005m-278.957.968c-.716 1.035-.949 1.453-.809 1.453.065 0 .447-.498.85-1.107.819-1.237.783-1.536-.041-.346m-9.47 15.56c-.31.609-.502 1.107-.426 1.107s.392-.498.703-1.107.502-1.106.426-1.106-.392.498-.703 1.106m-3.961 7.897c-.65 1.363-.559 1.595.121.307.308-.585.512-1.112.452-1.172s-.318.329-.573.865m-11.761 1.106c-.464 1.017-.375 1.234.126.309.234-.432.373-.837.31-.9s-.26.202-.436.591M27.727 179.53c0 .532.057.75.126.484a2.26 2.26 0 0 0 0-.968c-.069-.267-.126-.049-.126.484m10.235.83c0 .532.057.75.126.484a2.26 2.26 0 0 0 0-.968c-.069-.267-.126-.049-.126.484m332.503.276c0 .533.057.751.127.484a2.29 2.29 0 0 0 0-.968c-.07-.266-.127-.048-.127.484m-332.78 2.213c0 .533.057.751.127.484a2.29 2.29 0 0 0 0-.968c-.07-.266-.127-.048-.127.484m322.827.968c.003.609.06.825.126.481s.064-.842-.005-1.106-.124.017-.121.625m-333.327.969c0 .684.054.964.119.622a3.94 3.94 0 0 0 0-1.245c-.065-.342-.119-.062-.119.623m10.224.829c0 .533.057.751.126.485s.07-.702 0-.969-.126-.048-.126.484m333.615.415c.003.609.06.825.126.481s.064-.842-.006-1.106-.123.017-.12.625m-10.235.83c.003.609.06.825.126.481s.064-.842-.006-1.106-.123.017-.12.625m-333.881 1.245c0 .685.054.965.12.623a3.94 3.94 0 0 0 0-1.245c-.066-.343-.12-.063-.12.622m10.235 1.107c0 .684.054.964.12.622a3.94 3.94 0 0 0 0-1.245c-.066-.342-.12-.062-.12.623m334.167.691c.002.761.056 1.039.119.619s.062-1.043-.003-1.383-.118.003-.116.764m-10.235.83c.002.761.056 1.039.119.619s.062-1.043-.003-1.383-.118.003-.116.764m-334.424 2.49c.001 1.217.049 1.68.108 1.03s.058-1.647-.002-2.213-.107-.034-.106 1.183m10.237 1.521c0 1.293.047 1.822.106 1.176a15.92 15.92 0 0 0 0-2.352c-.059-.646-.106-.117-.106 1.176m334.737 5.394l.089 2.821v-5.809c-.049-1.552-.09-.207-.089 2.988m-10.24.139l.093 2.282v-4.565c-.051-1.255-.093-.228-.093 2.283m-324.497 5.532c0 1.293.047 1.822.106 1.176a15.92 15.92 0 0 0 0-2.352c-.059-.646-.106-.117-.106 1.176m-10.239 1.107c0 1.141.049 1.608.109 1.037s.059-1.504 0-2.075-.109-.103-.109 1.038m334.422 2.489c0 .685.054.965.12.623a3.94 3.94 0 0 0 0-1.245c-.066-.342-.12-.062-.12.622m10.243.83c0 .837.052 1.179.115.761s.063-1.103 0-1.522-.115-.076-.115.761m-334.171 1.107c0 .684.054.964.12.622a3.94 3.94 0 0 0 0-1.245c-.066-.342-.12-.062-.12.623m-10.241.691c.003.609.06.825.126.481s.064-.842-.005-1.106-.124.017-.121.625m333.881 1.245c0 .533.057.75.127.484a2.29 2.29 0 0 0 0-.968c-.07-.266-.127-.048-.127.484m10.241.968c.003.609.06.825.126.481s.064-.842-.006-1.106-.123.017-.12.625m-333.615.415c0 .533.057.75.126.484a2.26 2.26 0 0 0 0-.968c-.069-.266-.126-.048-.126.484m-10.236.83c0 .533.057.75.127.484a2.26 2.26 0 0 0 0-.968c-.07-.266-.127-.048-.127.484m22.916 49.101c0 .152.178.588.395.968s.395.567.395.415-.177-.588-.395-.968-.395-.567-.395-.415m-8.576 6.086c0 .152.178.588.396.968s.395.567.395.415-.178-.588-.395-.968-.396-.567-.396-.415m311.658 6.926l-1.166 2.617c.184 0 2.687-5.013 2.564-5.135-.054-.054-.683 1.079-1.398 2.518m-308.634-.596c0 .297.823 1.83.982 1.83.076 0-.067-.404-.319-.899-.513-1.01-.663-1.22-.663-.931m16.008 7.778a7.17 7.17 0 0 0 .722 1.106l.451.553-.272-.553c-.149-.304-.474-.802-.722-1.106l-.45-.554.271.554m-10.511 2.489a7.03 7.03 0 0 0 .722 1.107l.45.553-.271-.553c-.15-.305-.475-.802-.723-1.107l-.45-.553.272.553m285.364.761c-.427.647-.599 1.03-.383.851.416-.343 1.475-2.027 1.275-2.027-.064 0-.466.529-.892 1.176m-282.875 3.389a7.17 7.17 0 0 0 .722 1.106l.451.553-.272-.553c-.149-.304-.474-.802-.722-1.106l-.45-.554.271.554m16.079 5.325c.362.494.702.899.754.899.21 0-.475-1.038-.929-1.406-.299-.243-.232-.05.175.507m259.342 1.885c-.414.543-.709 1.03-.655 1.083s.447-.39.876-.986c.973-1.354.797-1.432-.221-.097m-270.445.328c.346.494.688.899.759.899.239 0-.409-1.01-.902-1.406-.346-.278-.305-.131.143.507m12.708.067c.259.456.571.829.694.83s.002-.372-.267-.828-.582-.83-.695-.83.008.373.268.828m11.42 12.549c.064.055.489.183.946.285.606.136.718.11.415-.095-.374-.253-1.638-.429-1.361-.19m6.431 1.699c.001 1.065.051 1.467.111.893s.059-1.445-.003-1.937-.11-.021-.108 1.044m144.93-1.607a2.29 2.29 0 0 0 .968 0c.266-.07.048-.127-.484-.127s-.751.057-.484.127m6.941 1.884c.001 1.217.049 1.68.108 1.03s.058-1.647-.002-2.213-.107-.035-.106 1.183m-144.711 1.729c-.053 3.066-.013 3.388.425 3.384.334-.003.38-.071.148-.218-.223-.141-.366-1.284-.425-3.384l-.089-3.171-.059 3.389m21.055-1.453c.002 1.065.052 1.467.111.893s.059-1.445-.002-1.936-.11-.022-.109 1.043m18.171-1.452c-.003.325.2.477.618.462s.485-.074.208-.18a1.48 1.48 0 0 1-.618-.462c-.126-.188-.205-.119-.208.18m8.018-.088c0 .141-.28.311-.622.377-.534.103-.514.125.138.157.508.026.761-.099.761-.377 0-.228-.063-.415-.139-.415s-.138.116-.138.258m12.171-.027c0 .177-.287.322-.638.322s-.881.194-1.176.431c-.519.415-.516.42.067.138.333-.161.854-.292 1.16-.292.577 0 1.042-.467.753-.756-.091-.091-.166-.021-.166.157m14.389.115c-.002.266.11.484.25.484s.482.072.761.159c.424.134.417.104-.047-.184-.304-.188-.645-.478-.756-.643-.124-.183-.205-.111-.208.184m26.003 0c-.003.37.207.475.895.446.761-.031.793-.057.207-.166-.38-.07-.783-.271-.895-.446-.13-.204-.204-.145-.207.166m19.636 3.089c0 2.489-.095 3.473-.346 3.574-.206.084-.151.149.139.162.437.019.484-.326.484-3.575l-.139-3.596c-.076 0-.138 1.546-.138 3.435m83.942-.185c.011 2.686.085 3.251.425 3.251.226 0 .431-.22.456-.49.031-.342.006-.363-.086-.069-.36 1.16-.634.102-.717-2.761l-.092-3.182.014 3.251m-119.073-2.697l-.968.204.882.037c.486.02.96-.088 1.054-.241s.132-.26.085-.24-.521.128-1.053.24m-60.789.191c.267.07.702.07.969 0s.048-.126-.485-.126-.75.057-.484.126m10.377.005c.344.066.842.064 1.107-.005s-.018-.124-.626-.121-.825.06-.481.126m97.84.98l-1.094 1.176 1.176-1.094c1.093-1.017 1.303-1.258 1.094-1.258-.046 0-.575.529-1.176 1.176M75.38 313.36a7.6 7.6 0 0 0-.956 1.028c-.221.302.059.121.623-.404.921-.856 1.165-1.14.956-1.112-.038.005-.318.225-.623.488m3.112-.011c-.418.26-.76.587-.76.728s.218.066.484-.164.733-.557 1.037-.726.429-.308.277-.308-.619.211-1.038.47m42.252.097l.622.777c.04.064.072-.062.072-.279s-.28-.567-.622-.777l-.622-.382.55.661m19.277.057c-.331.352-.601.819-.601 1.038s.239.006.531-.472.695-.934.898-1.015.234-.157.071-.169-.569.266-.899.618m48.268-.363c.329.132.73.467.891.743s.295.365.3.199c.012-.421-.92-1.223-1.397-1.201-.216.009-.123.126.206.259m45.736-.079a15.29 15.29 0 0 1 1.176.539c.418.211.76.322.76.245 0-.217-1.592-.984-1.992-.96-.241.015-.223.072.056.176m39.304-.114c.063.046.488.314.945.596l.83.512-.527-.596c-.29-.328-.715-.596-.945-.596s-.367.038-.303.084m20.836.538c-.523.618-.523.619.026.175.304-.247.74-.517.968-.601.352-.129.348-.156-.026-.174-.243-.012-.679.258-.968.6m-195.133.212c-.292.191-.128.219.553.094 1.193-.219 1.418-.376.53-.37-.367.002-.855.126-1.083.276m9.465 9.747l.137 6.57c.195-8.722.199-16.598.011-16.598-.115 0-.181 4.513-.148 10.028m2.729-9.928c.326.281 1.667.448 1.506.188-.098-.158-.503-.288-.9-.288s-.669.045-.606.1m92.758 4.05c0 2.358.043 3.323.094 2.144s.052-3.109 0-4.288-.094-.215-.094 2.144m4.384-3.959a2.26 2.26 0 0 0 .968 0c.266-.07.049-.127-.484-.127s-.75.057-.484.127m97.981 9.768c0 5.553.037 7.825.082 5.048a377.61 377.61 0 0 0 0-10.097c-.045-2.776-.082-.504-.082 5.049m8.174-9.852c0 .059.367.161.815.227s.752.018.675-.107c-.137-.222-1.49-.331-1.49-.12m-230.152.533c0 .048.404.452.899.899l.899.813-.813-.899c-.757-.838-.985-1.027-.985-.813m151.867 0c0 .048.404.452.899.899l.899.813-.813-.899c-.757-.838-.985-1.027-.985-.813m39.28 9.678l.139 9.184.073-8.972c.04-4.935-.022-9.068-.138-9.184s-.15 3.921-.074 8.972m-148.427-1.604c.001 3.956.039 5.536.087 3.511s.047-5.262 0-7.193-.087-.274-.087 3.682m10.788-.277c0 3.652.039 5.107.087 3.235s.048-4.86 0-6.639-.088-.247-.087 3.404m90.922-5.755c-.021.571.188 1.114.59 1.535.343.358.448.427.233.153s-.48-.965-.59-1.535c-.2-1.032-.201-1.033-.233-.153m-89.539 6.309c0 3.803.039 5.398.087 3.543a166.08 166.08 0 0 0 0-6.916c-.047-1.949-.086-.431-.087 3.373m-23.033-5.348c-.026.734-.195 1.351-.392 1.43-.271.109-.269.144.008.161.493.031.67-.564.541-1.816-.107-1.031-.112-1.024-.157.225m177.108 3.688c0 2.738.042 3.821.092 2.406s.05-3.655-.001-4.979-.091-.166-.091 2.573m-145.619-3.458c.31.609.627 1.107.703 1.107s-.116-.498-.427-1.107-.626-1.106-.702-1.106.115.497.426 1.106m50.744 6.777c0 4.413.039 6.179.085 3.925a228.2 228.2 0 0 0 0-8.022c-.047-2.158-.085-.315-.085 4.097m-76.903-.691c0 3.879.039 5.467.086 3.527s.048-5.114 0-7.054-.086-.353-.086 3.527m87.397-5.68c-.086.223-.092.565-.014.761s.153.085.165-.245.177-.662.367-.739c.271-.109.269-.144-.008-.161-.195-.012-.425.161-.51.384m-130.611.852c.565.586 1.085 1.008 1.155.939s-.392-.55-1.028-1.066l-1.155-.938 1.028 1.065m176.748 1.105c-.463 1.017-.375 1.234.126.31.234-.432.374-.837.311-.9s-.26.202-.437.59m-47.742 2.314l-.81.994.934-.89c.513-.49.878-.937.81-.995s-.489.344-.934.891m-50.919.026c.236.456.491.83.567.83s-.055-.374-.291-.83-.491-.83-.567-.83.055.373.291.83m-81.19 1.245c.516.532 1.001.968 1.077.968s-.284-.436-.8-.968-1.001-.969-1.077-.969.284.436.8.969m151.867 0c.516.532 1.001.968 1.077.968s-.284-.436-.8-.968-1.001-.969-1.077-.969.284.436.8.969m-140.27.506c.705.776.857.872.842.531-.004-.114-.347-.447-.76-.739l-.752-.531.67.739m152.341.47c.63.68 1.34 1.61 1.58 2.066s.436.706.436.554c.003-.63-1.301-2.373-2.477-3.312-.376-.3-.168.011.461.692m44.081.541c.48.607 1.018 1.192 1.195 1.301s-.159-.387-.746-1.102-1.123-1.302-1.194-1.302.265.497.745 1.103m-131.255.557c.236.457.491.83.567.83s-.055-.373-.291-.83-.491-.83-.567-.83.055.374.291.83m51.918 3.389c.052 4.276.158 3.771.291-1.384.04-1.56-.021-2.836-.135-2.835s-.184 1.899-.156 4.219m-27.959-3.804c.005.152.249.775.542 1.383s.454.796.36.415c-.195-.783-.916-2.221-.902-1.798m30.536.183c.304.167.779.568 1.056.891l.502.586-.301-.616c-.288-.588-1.103-1.192-1.585-1.174-.124.005.023.146.328.313m-128.216.356c0 .076.373.332.83.568s.83.367.83.291-.374-.332-.83-.568-.83-.367-.83-.291m187.018.568c0 .152.178.588.395.968s.396.567.396.415-.178-.588-.396-.968-.395-.567-.395-.415m-112.222 4.426c.001 1.978.045 2.75.098 1.717s.053-2.651-.001-3.596-.097-.099-.097 1.879m106.78-3.096c.151.466-.065.494-3.268.414-1.886-.046-3.372.009-3.301.123.174.279 6.666.267 6.839-.013.075-.122.009-.402-.148-.623-.229-.323-.253-.304-.122.099m-76.024.656c-.16.416-.225.428-.445.081-.142-.224-.258-.283-.258-.131 0 .775.491 1.033.814.429.181-.338.272-.672.203-.741s-.211.093-.314.362m50.465-.4c.076.083.76.617 1.521 1.188.815.611 1.134.766.777.377-.333-.364-1.018-.899-1.521-1.189s-.854-.459-.777-.376m59.028 3.393c.001 1.978.045 2.751.098 1.717s.053-2.651-.001-3.596-.097-.099-.097 1.879m-210.342-3.108c0 .061.529.531 1.175 1.045s1 .716.785.448c-.404-.503-1.96-1.688-1.96-1.493m203.529 1.023c.417.603.862 1.101.989 1.106s-.164-.487-.646-1.096c-1.125-1.42-1.322-1.426-.343-.01m-196.826.287c0 .532.057.75.126.484a2.26 2.26 0 0 0 0-.968c-.069-.266-.126-.049-.126.484m135.291 1.245c.002.913.053 1.253.115.756s.06-1.245-.003-1.66-.114-.009-.112.904m25.132.565c-.463 1.017-.375 1.234.126.309.234-.432.374-.837.311-.9s-.26.203-.437.591m-36.542 1.314c-1.163 1.364-1.173 1.389-.185.472.875-.812 1.771-1.968 1.491-1.924-.043.007-.631.661-1.306 1.452m-138.091-.496c.466.959 3.086 3.181 3.75 3.181.148 0-.287-.352-.966-.783s-1.644-1.271-2.144-1.867-.789-.835-.64-.531m60.463 1.314l-.813.899.899-.813c.838-.757 1.027-.985.813-.985-.048 0-.452.404-.899.899m92.548.069c.517.533 1.001.968 1.077.968s-.284-.435-.8-.968-1.001-.968-1.077-.968.284.436.8.968m8.645-.069c-.298.813-.29.847.077.362.352-.465.56-1.261.329-1.261-.042 0-.225.404-.406.899m-151.66-.413c0 .166-.338.715-.751 1.222-.617.756-.637.822-.112.37.745-.643 1.254-1.503 1.024-1.733-.088-.088-.161-.025-.161.141m97.417.494c-.463 1.017-.375 1.234.126.309.234-.431.374-.837.311-.9s-.26.203-.437.591m68.046.195c-.041.763.774 1.868 1.379 1.868.173 0-.006-.252-.397-.56s-.762-.899-.825-1.314l-.115-.754-.042.76m-11.674.969l-.953 1.037 1.037-.953c.965-.888 1.164-1.122.953-1.122-.046 0-.513.467-1.037 1.038m29.337-.838c0 .287 1.617 1.896 1.726 1.717.04-.065-.332-.535-.827-1.043s-.899-.812-.899-.674m-181.604 1.092c-.609.546-.858.863-.554.705.513-.265 2.041-1.734 1.777-1.709-.064.007-.615.458-1.223 1.004m160.868-.174c-.527.45-.831.819-.675.819s.642-.374 1.079-.83c1.007-1.051.832-1.046-.404.011m14.682-.371c-.017.335-.25.736-.516.891s-.344.286-.172.29c.492.014.991-.746.85-1.292-.104-.399-.136-.377-.162.111m49.537.06c.064.215.42.58.792.812.525.327.583.332.262.024a20.17 20.17 0 0 1-.793-.813c-.304-.334-.355-.338-.261-.023m-87.141 1.044c-.062 1.488.373 1.74 1.294.75l.732-.787-.709.615c-.961.832-1.041.793-1.163-.561l-.106-1.176-.048 1.159m49.329-.449c-.457.293-.688.532-.515.533s.609-.243.968-.542c.823-.685.625-.681-.453.009m-47.142.357c.064.055.489.183.945.286.607.135.718.109.415-.096-.373-.252-1.637-.429-1.36-.19m-152.746.624c-.203.245-.623.548-.932.674-.556.225-.556.228-.01.237.304.004.777-.299 1.05-.674.553-.759.472-.936-.108-.237m75.337-.256c.267.07.702.07.969 0s.048-.126-.485-.126-.75.057-.484.126m11.964.075l.83.199-.968.139-.968.138 1.037.044c.758.033 1.038-.067 1.038-.37 0-.291-.27-.405-.899-.383l-.899.033.829.2m33.338.219c.003.307.078.369.207.17.112-.172.453-.376.757-.452.424-.106.376-.146-.208-.17-.553-.024-.759.099-.756.452m64.726-.069c0 .228.132.415.293.415s.222-.116.134-.257.123-.311.468-.378c.542-.104.524-.125-.134-.158-.509-.025-.761.1-.761.378m43.158.069c.002.298.082.367.207.18.112-.168.39-.376.618-.463.278-.105.209-.165-.207-.179s-.621.137-.618.462m-202.702.267c.419.063 1.104.063 1.522 0s.076-.115-.761-.115-1.179.052-.761.115m4.297.006a22.59 22.59 0 0 0 2.767-.001c.717-.057.06-.103-1.462-.102s-2.108.047-1.305.103m5.247-.009a3.94 3.94 0 0 0 1.245 0c.342-.066.062-.12-.623-.12s-.964.054-.622.12m40.664 0a3.94 3.94 0 0 0 1.245 0c.342-.066.062-.12-.623-.12s-.964.054-.622.12m5.259.001c.344.066.842.063 1.107-.006s-.018-.123-.626-.12-.825.059-.481.126m45.645.004c.497.062 1.244.061 1.66-.002s.009-.114-.904-.112-1.253.053-.756.114m4.014.004a17.97 17.97 0 0 0 2.49-.002c.642-.058.047-.105-1.322-.104s-1.895.048-1.168.106m6.498-.004c.497.062 1.244.061 1.659-.002s.009-.114-.904-.112-1.253.053-.755.114m52-.005a3.94 3.94 0 0 0 1.245 0c.342-.066.062-.12-.622-.12s-.965.054-.623.12m4.565-.004a2.29 2.29 0 0 0 .968 0c.266-.07.048-.127-.484-.127s-.751.057-.484.127m23.962.155c.208.266.551.484.76.484s.379-.218.377-.484c-.003-.398-.049-.413-.255-.087-.219.345-.318.345-.757 0-.462-.364-.473-.356-.125.087m11.584-.151a3.94 3.94 0 0 0 1.245 0c.342-.066.062-.12-.623-.12s-.964.054-.622.12m3.458-.004a2.29 2.29 0 0 0 .968 0c.266-.07.048-.127-.484-.127s-.751.057-.484.127m5.671.004c.342.066.902.066 1.244 0s.063-.12-.622-.12-.965.054-.622.12m-232.366.558c.495.062 1.304.062 1.798 0s.09-.111-.899-.111-1.393.05-.899.111m48.41.003c.646.058 1.705.058 2.351 0s.118-.106-1.176-.106-1.822.048-1.175.106" fill="#95bbd5"/><path d="M121.93 123.854c.65.059 1.646.058 2.213-.001s.034-.108-1.183-.107-1.681.05-1.03.108m7.046.001c.723.057 1.906.057 2.628 0s.132-.104-1.314-.104-2.036.047-1.314.104m-10.788.264a2.29 2.29 0 0 0 .968 0c.267-.07.049-.127-.484-.127s-.75.057-.484.127m16.459.004a3.94 3.94 0 0 0 1.245 0c.342-.066.062-.12-.622-.12s-.965.054-.623.12m5.118.549a2.26 2.26 0 0 0 .968 0c.266-.07.048-.126-.484-.126s-.75.056-.484.126m19.623 4.719c.39.419.777.948.86 1.176.133.367.153.367.173-.003.021-.409-1.21-1.933-1.563-1.933-.098 0 .14.342.53.76m32.797-.553h28.354c7.798-.041 1.418-.074-14.177-.074l-14.177.074m96.957 0h28.631c7.874-.041 1.432-.074-14.315-.074l-14.316.074m-15.729.77c-.644.983-.375 1.046.398.093.354-.437.512-.794.352-.794s-.498.315-.75.701m-174.934.984c-.46.376-.506.469-.139.28.903-.467 1.403-.85 1.107-.848-.152.001-.588.257-.968.568m78.381 2.188c0 1.293.048 1.822.106 1.176a15.92 15.92 0 0 0 0-2.352c-.058-.646-.106-.117-.106 1.176m60.581 0c0 1.293.048 1.822.106 1.176a15.92 15.92 0 0 0 0-2.352c-.058-.646-.106-.117-.106 1.176m-140.973-.958c-.568.386-1.032.761-1.032.834s.498-.198 1.106-.6c.966-.64 1.293-.936 1.033-.936-.041 0-.539.316-1.107.702m176.373.958c0 .989.05 1.394.112.899s.061-1.303 0-1.798-.112-.09-.112.899m-179.342 1.406l-1.245 1.129 1.314-1.024c1.152-.898 1.494-1.236 1.245-1.234-.038.001-.629.509-1.314 1.129m30.369-.372c.804.056 2.049.056 2.766-.001s.06-.103-1.461-.102-2.109.047-1.305.103m5.385.263a2.26 2.26 0 0 0 .968 0c.267-.069.049-.126-.484-.126s-.75.057-.484.126m203.804 1.417c0 .464-1.281 1.224-2.445 1.451-.878.171-.91.202-.239.229 1.232.051 3.371-1.309 2.861-1.819-.097-.098-.177-.035-.177.139m-156.017.323c0 .364 1.355 1.233 1.576 1.012.097-.097.031-.176-.147-.176s-.571-.249-.876-.553-.553-.432-.553-.283m96.425.1c.18.469 1.707 1.175 1.97.911.097-.096-.015-.175-.248-.175s-.751-.258-1.151-.572c-.495-.39-.677-.442-.571-.164m-183.437 1.358l-1.093 1.176 1.176-1.094c1.093-1.017 1.302-1.257 1.093-1.257-.045 0-.574.529-1.176 1.175m18.478.493c-.799.458-1.452.893-1.452.967 0 .109 2.873-1.387 3.296-1.716.525-.408-.678.08-1.844.749m71.646-.648a2.26 2.26 0 0 0 .968 0c.267-.069.049-.126-.484-.126s-.75.057-.484.126m96.542 0c.267.07.702.07.969 0s.048-.126-.485-.126-.75.057-.484.126m-45.643.277a2.29 2.29 0 0 0 .968 0c.267-.07.049-.127-.484-.127s-.75.057-.484.127m48.41 0a2.29 2.29 0 0 0 .968 0c.266-.07.048-.127-.484-.127s-.751.057-.484.127m47.306.008c.421.063 1.043.061 1.383-.004s-.003-.118-.764-.116-1.039.056-.619.12m-98.064.273c.344.067.842.064 1.107-.005s-.017-.124-.626-.121-.825.06-.481.126m53.247-.005a2.26 2.26 0 0 0 .968 0c.267-.069.049-.126-.484-.126s-.75.057-.484.126m41.632.005a3.94 3.94 0 0 0 1.245 0c.342-.066.062-.12-.622-.12s-.965.054-.623.12m-136.238.272c.267.07.702.07.969 0s.048-.126-.485-.126-.75.056-.484.126m38.316.005c.344.066.842.064 1.107-.006s-.017-.123-.626-.12-.825.06-.481.126m59.198 0c.344.066.842.064 1.106-.006s-.017-.123-.625-.12-.825.06-.481.126m35.685 0c.344.066.842.064 1.106-.006s-.017-.123-.625-.12-.825.06-.481.126m-130.571.276a3.94 3.94 0 0 0 1.245 0c.342-.066.062-.12-.622-.12s-.965.054-.623.12m31.253.005c.491.061 1.362.062 1.936.002s.172-.11-.893-.111-1.534.048-1.043.109m66.811-.009a2.29 2.29 0 0 0 .968 0c.266-.07.049-.127-.484-.127s-.75.057-.484.127m29.461.004c.342.066.902.066 1.244 0s.063-.12-.622-.12-.965.054-.622.12m-123.925.277c.344.066.842.064 1.106-.005s-.017-.124-.625-.121-.825.06-.481.126m2.217.512c.338.237.625.641.637.899.014.313.07.348.166.106.16-.397-.652-1.436-1.122-1.436-.163 0-.019.194.319.431m97.77.053c.232.267.49.671.574.899.105.287.159.302.174.051.033-.539-.505-1.434-.86-1.434-.186 0-.142.194.112.484m20.563.053c-.267.296-.421.701-.341.899.112.279.15.272.167-.031.012-.216.228-.621.479-.899s.396-.506.32-.506-.357.242-.625.537m-97.647.355c-.237.338-.416.991-.399 1.452.03.794.042.784.231-.185.109-.563.359-1.217.555-1.453s.286-.429.2-.429-.35.276-.587.615m-113.062 2.088c-.691.719-1.6 1.806-2.02 2.414l-.765 1.107.922-1.107a48.42 48.42 0 0 1 2.111-2.323c.654-.669 1.149-1.258 1.099-1.308s-.656.498-1.347 1.217m210.138 41.557l.073 21.369v-42.738c-.04-11.754-.073-2.137-.073 21.369M86.268 141.563c-.877 1.059-1.193 1.551-.873 1.359.354-.213 1.582-1.843 1.389-1.843-.063 0-.295.218-.516.484m110.544 19.986l.076 10.028v-20.056c-.042-5.515-.076-1.002-.076 10.028m-114.807-13.25c-.393.775-.668 1.457-.611 1.513s.437-.578.845-1.41.684-1.514.612-1.514-.452.635-.846 1.411m134.163 11.037c0 4.945.037 6.968.083 4.495s.046-6.518 0-8.99-.083-.45-.083 4.495m-118.705-1.798c.001 1.065.051 1.467.111.893s.059-1.445-.002-1.936-.11-.022-.109 1.043m-18.837 2.628c0 .532.057.75.126.484a2.26 2.26 0 0 0 0-.968c-.069-.266-.126-.049-.126.484m70.485 1.612c-.013.472 1.494 1.985 1.974 1.982.202-.001.002-.242-.444-.536s-.971-.823-1.166-1.174-.359-.474-.364-.272m10.719.608c-.261.458-.759.948-1.106 1.087-.438.176-.491.259-.173.272.457.017 1.892-1.454 1.892-1.94 0-.408-.108-.306-.613.581m-4.297 1.574a6.05 6.05 0 0 0 1.521 0c.418-.063.076-.115-.761-.115s-1.179.052-.76.115m-76.907 3.951c0 .533.057.751.126.485s.07-.702 0-.969-.126-.048-.126.484m22.638 1.788c.358.651 1.363 1.865 1.356 1.638-.004-.134-.346-.623-.76-1.085s-.682-.711-.596-.553m2.47 3.053c.517.533 1.001.969 1.077.969s-.284-.436-.8-.969-1.001-.968-1.077-.968.284.436.8.968m2.767 2.176c0 .076.373.404.83.729s.829.529.829.453-.373-.405-.829-.73-.83-.528-.83-.452m3.734 2.532c.304.248.802.573 1.107.722l.553.272-.553-.451c-.305-.247-.803-.572-1.107-.722l-.553-.271.553.45m-25.87 6.487c.321.452.726.909.899 1.016s-.035-.263-.461-.822c-.925-1.212-1.273-1.366-.438-.194m39.863.942c.284.254 1.913 1.003 1.913.879 0-.159-1.533-.982-1.83-.982-.109 0-.147.046-.083.103m-38.304 1.003c.321.38.722.941.89 1.245.229.413.308.444.315.121.004-.238-.396-.798-.89-1.245-.707-.639-.774-.665-.315-.121m47.686 3.596c1.141.594 2.199 1.079 2.351 1.079s-.657-.485-1.798-1.079-2.199-1.079-2.351-1.079.657.486 1.798 1.079m-40.387 3.13c0 .068.457.473 1.015.899s.928.633.822.46c-.219-.354-1.837-1.551-1.837-1.359m122.673 14.298l.079 7.261v-14.523c-.043-3.994-.079-.726-.079 7.262m-72.328-12.598c0 .076.498.392 1.107.703s1.106.502 1.106.426-.497-.392-1.106-.703-1.107-.502-1.107-.426m4.841 2.782a7.16 7.16 0 0 0 1.107.723l.553.271-.553-.45c-.304-.248-.802-.573-1.107-.722l-.553-.272.553.45m-45.228 2.047c.666.543 1.107.72 1.107.445 0-.072-.405-.328-.899-.57l-.899-.438.691.563m1.383.7c0 .077.374.332.83.568s.83.367.83.291-.373-.332-.83-.568-.83-.367-.83-.291m48.41.24c0 .068.457.473 1.015.899s.928.633.822.46c-.219-.354-1.837-1.552-1.837-1.359m-46.45.846c.284.255 1.913 1.003 1.913.879 0-.159-1.533-.982-1.83-.982-.109 0-.147.046-.083.103m49.415 1.572c.489.509.95.864 1.024.79s-.327-.49-.89-.924l-1.025-.79.891.924m-46.672-.154c.38.218.816.396.968.396s-.034-.178-.415-.396-.816-.395-.968-.395.035.178.415.395m3.043 1.37c0 .142 2.465 1.265 2.732 1.246.219-.016-2.245-1.342-2.525-1.358-.114-.007-.207.044-.207.112m46.749 1.673c.981.989 1.845 1.798 1.921 1.798s-.664-.809-1.644-1.798-1.844-1.798-1.92-1.798.663.809 1.643 1.798m2.49 2.766c.357.381.696.692.753.692.23 0-.91-1.366-1.147-1.374-.141-.005.037.302.394.682m-39.281.277c.685.367 1.37.667 1.522.667s-.284-.3-.968-.667-1.37-.666-1.522-.666.284.299.968.666m74.525 4.011c0 2.511.042 3.537.093 2.282s.052-3.309 0-4.564-.093-.228-.093 2.282m-67.056-.429c0 .076.374.331.83.567s.83.367.83.291-.373-.331-.83-.567-.83-.367-.83-.291m10.263 7.36c1.461 1.437 3.059 3.111 3.551 3.719.664.821.738.87.285.188-.884-1.332-3.417-4.009-5.066-5.356-.79-.644-.241.002 1.23 1.449m154.159 5.241c0 1.901.044 2.679.098 1.729a36.93 36.93 0 0 0 0-3.458c-.054-.951-.098-.173-.098 1.729m-97.094 2.351c0 1.978.044 2.751.098 1.717s.052-2.651-.001-3.596-.098-.099-.097 1.879m19.062-.968c0 .837.052 1.179.115.76a6.05 6.05 0 0 0 0-1.521c-.063-.418-.115-.076-.115.761m-47.587.83c0 .684.054.964.12.622a3.94 3.94 0 0 0 0-1.245c-.066-.342-.12-.062-.12.623m47.856 3.043c0 .684.054.964.12.622a3.94 3.94 0 0 0 0-1.245c-.066-.342-.12-.062-.12.623m77.455 1.383c0 .684.054.964.12.622a3.94 3.94 0 0 0 0-1.245c-.066-.342-.12-.062-.12.623m19.372 3.043c0 .836.051 1.179.115.76s.063-1.103 0-1.521-.115-.076-.115.761m-144.679.138c.002.761.056 1.039.119.618s.062-1.042-.004-1.383-.117.004-.115.765m125.025 0c.003.608.06.825.126.481s.064-.842-.006-1.107-.123.017-.12.626m-213.01-.261c-.338.237-.614.572-.614.744s.176.073.391-.223c.347-.474.854-.555 4.357-.69l3.965-.153-3.742-.055c-3.003-.043-3.863.031-4.357.377m9.588.296c.353.248.812.839 1.018 1.314s.381.656.387.401c.013-.547-1.284-2.165-1.735-2.165-.172 0-.024.203.33.45m107.162 1.21c0 .684.054.964.12.622a3.94 3.94 0 0 0 0-1.245c-.066-.342-.12-.062-.12.623m-48.39 2.351c.001 1.217.05 1.681.108 1.03s.058-1.646-.002-2.213-.107-.034-.106 1.183m18.321 3.892c-.102.406-.132.791-.067.856s.202-.213.304-.618.131-.791.066-.856-.202.213-.303.618m144.398 2.213c-.102.406-.132.791-.066.856s.201-.213.303-.618.132-.791.067-.856-.202.213-.304.618m-164.141 1.696c-.173.562-.269 1.069-.213 1.125s.251-.351.434-.904.278-1.059.212-1.125-.261.341-.433.904m141.724 3.288c-.258.394-.406.779-.329.856s.34-.245.583-.716c.538-1.04.39-1.122-.254-.14m-144.13 1.809c-.575.932-1.994 2.638-3.152 3.792-1.289 1.285-1.637 1.727-.896 1.141 1.415-1.12 3.812-3.932 4.703-5.517.962-1.711.517-1.315-.655.584m55.613-.796c.103.343.302.744.441.893s.113-.131-.058-.622c-.35-1.005-.674-1.234-.383-.271m21.164.541c.49.715 1.215 1.587 1.612 1.936.745.657.673.542-.736-1.163-1.454-1.758-1.698-1.974-.876-.773m65.667.959c-.427.558-.634.928-.461.821.354-.218 1.552-1.837 1.359-1.837-.068 0-.472.457-.898 1.016m-1.923 2.16c-.606.53-.972.966-.811.968s.713-.43 1.229-.962c1.202-1.24 1-1.242-.418-.006m-124.905 1.32c-.513.646-.715 1-.448.785.504-.405 1.689-1.961 1.494-1.961-.061 0-.532.529-1.046 1.176m122.557.802c-.532.467-.718.722-.412.568.506-.256 1.759-1.455 1.492-1.428-.061.006-.547.393-1.08.86m-78.796.71c1.108 1.612 4.581 5.271 6.45 6.797.765.625.117-.081-1.442-1.569s-3.473-3.566-4.256-4.619c-1.621-2.179-2.1-2.567-.752-.609m22.503-.813c.592.635 4.777 3.107 5.249 3.1.156-.002-.629-.501-1.744-1.109s-2.484-1.438-3.042-1.845c-.765-.558-.88-.594-.463-.146m77.844 1.789c-.67.797-2.028 2.337-3.017 3.421s-.512.65 1.06-.966c2.512-2.581 3.624-3.906 3.281-3.906-.058 0-.653.653-1.324 1.451m-147.56 1.37c-1.214 1.248-1.646 1.777-.962 1.176 1.257-1.103 3.486-3.444 3.28-3.444-.061 0-1.104 1.021-2.318 2.268M95.3 257.953c.093.456.562 1.203 1.043 1.66.557.529.657.578.275.136-.33-.381-.799-1.128-1.043-1.66-.427-.931-.437-.936-.275-.136m183.815.415c-1.141.593-1.978 1.085-1.861 1.093.295.019 4.074-1.897 4.074-2.065 0-.187.091-.227-2.213.972m-143.015.553c-.533.292-.869.535-.747.542.293.015 1.853-.796 1.853-.964 0-.181-.016-.175-1.106.422m137.067 1.66c-.348.15-.399.238-.138.238.228 0 .664-.107.968-.238.349-.15.4-.238.139-.238-.229 0-.664.107-.969.238m-119.251 1.426l-.527.596.76-.49c.785-.504.933-.702.527-.702-.128 0-.471.268-.76.596m93.044.429c.344.066.842.064 1.107-.005s-.017-.124-.626-.121-.825.06-.481.126m14.658 0a3.94 3.94 0 0 0 1.245 0c.342-.066.062-.12-.622-.12s-.965.054-.623.12m-11.057.284c.65.059 1.646.058 2.213-.002s.034-.107-1.183-.106-1.681.05-1.03.108m6.493-.001c.57.059 1.504.059 2.075 0s.103-.109-1.038-.109-1.608.049-1.037.109m-146.193.547c.344.066.842.064 1.106-.005s-.017-.124-.625-.121-.825.06-.481.126m10.37-.005a2.26 2.26 0 0 0 .968 0c.266-.069.049-.126-.484-.126s-.75.057-.484.126m-5.947.29a25.12 25.12 0 0 0 2.904 0c.799-.056.145-.101-1.452-.101s-2.251.045-1.452.101m181.258 1.909c-1.506 1.182-1.692 1.373-.968.987.603-.321 2.576-1.973 2.351-1.968-.076.002-.698.443-1.383.981m-83.241-.087a40.26 40.26 0 0 0 1.084.715l.968.624-.83-.713c-.457-.392-.944-.713-1.084-.714s-.201.039-.138.088m-133.08 2.093c0 .262 1.352 1.551 1.46 1.392.043-.064-.267-.451-.69-.86s-.77-.648-.77-.532m137.483.708c0 .076.373.331.83.567s.83.367.83.291-.374-.331-.83-.567-.83-.367-.83-.291m3.873 2.089c.837.442 1.646.804 1.798.804s-.408-.362-1.245-.804-1.646-.804-1.798-.804.408.362 1.245.804m-133.472.276c.304.131.74.238.968.238.262 0 .211-.088-.138-.238-.304-.13-.74-.237-.968-.237-.262 0-.211.088.138.237m49.654.139c-.532.205-.781.376-.553.381s.788-.162 1.245-.371c1.068-.489.571-.497-.692-.01m86.307.645c.229.141.727.339 1.107.441.481.129.565.107.277-.071-.229-.141-.727-.34-1.107-.442-.481-.128-.565-.107-.277.072m-89.488.323c-.349.15-.4.238-.138.238.228 0 .664-.107.968-.238.349-.15.4-.238.138-.238-.228 0-.664.107-.968.238m-38.312.83c.38.122 1.002.219 1.383.216.621-.005.607-.027-.139-.216-1.17-.298-2.174-.298-1.244 0m185.615.138c-.532.205-.781.377-.553.382s.788-.163 1.245-.372c1.068-.489.571-.496-.692-.01m-52.974.415c.305.131.74.238.969.238.261 0 .21-.088-.139-.238-.304-.131-.74-.238-.968-.238-.262 0-.21.088.138.238m50.484.277c-.556.178-.583.223-.138.229.304.005.802-.099 1.107-.229.705-.303-.023-.303-.969 0m-174.616.472c.344.066.842.064 1.107-.006s-.018-.123-.626-.12-.825.06-.481.126m18.392-.005c.267.07.702.07.969 0s.048-.127-.485-.127-.75.057-.484.127m-15.487.284c.421.064 1.043.062 1.383-.003s-.004-.118-.764-.116-1.039.056-.619.119m12.306-.003a3.94 3.94 0 0 0 1.245 0c.342-.066.062-.12-.622-.12s-.965.054-.623.12m-6.632.284c.651.059 1.647.058 2.213-.001s.035-.108-1.182-.107-1.681.05-1.031.108m158.084.541c.267.07.702.07.969 0s.048-.126-.484-.126-.751.057-.485.126m-1.936.277a2.26 2.26 0 0 0 .968 0c.267-.069.049-.126-.484-.126s-.75.057-.484.126m-27.939.277a2.29 2.29 0 0 0 .968 0c.266-.07.049-.127-.484-.127s-.75.057-.484.127m3.043.284c.418.063 1.103.063 1.521 0s.076-.115-.76-.115-1.18.051-.761.115m19.225-.003a3.94 3.94 0 0 0 1.245 0c.342-.066.062-.12-.622-.12s-.965.054-.623.12m-14.938.284a15.92 15.92 0 0 0 2.352 0c.646-.058.117-.106-1.176-.106s-1.822.048-1.176.106m9.966 0c.651.059 1.647.058 2.213-.002s.035-.107-1.183-.106-1.68.05-1.03.108" fill="#dfa5a5"/></svg>