<svg xmlns="http://www.w3.org/2000/svg" width="24" height="24" xmlns:v="https://vecta.io/nano"><path d="M24 4.557a9.83 9.83 0 0 1-2.828.775c1.017-.609 1.798-1.574 2.165-2.724-.951.564-2.005.974-3.127 1.195-.897-.957-2.178-1.555-3.594-1.555a4.93 4.93 0 0 0-4.797 6.045C7.728 8.088 4.1 6.128 1.671 3.149a4.93 4.93 0 0 0 1.523 6.574c-.806-.026-1.566-.247-2.229-.616a4.93 4.93 0 0 0 3.949 4.89c-.693.188-1.452.232-2.224.084a4.93 4.93 0 0 0 4.6 3.419A9.9 9.9 0 0 1 0 19.54a13.94 13.94 0 0 0 7.548 2.212c9.142 0 14.307-7.721 13.995-14.646.962-.695 1.797-1.562 2.457-2.549z" fill="#fff"/></svg>